<?xml version="1.0" encoding="UTF-8" standalone="no"?>
<!-- Created with Inkscape (http://www.inkscape.org/) -->

<svg
   xmlns:dc="http://purl.org/dc/elements/1.1/"
   xmlns:cc="http://creativecommons.org/ns#"
   xmlns:rdf="http://www.w3.org/1999/02/22-rdf-syntax-ns#"
   xmlns:svg="http://www.w3.org/2000/svg"
   xmlns="http://www.w3.org/2000/svg"
   xmlns:sodipodi="http://sodipodi.sourceforge.net/DTD/sodipodi-0.dtd"
   xmlns:inkscape="http://www.inkscape.org/namespaces/inkscape"
   sodipodi:docname="budgie-restart2.svg"
   height="19.768044"
   id="svg5082"
   version="1.1"
   inkscape:version="0.92.2 5c3e80d, 2017-08-06"
   viewBox="0 0 18.304568 19.768043"
   width="18.304567">
  <title
     id="title5087">Symbolic Icons</title>
  <defs
     id="defs5084" />
  <sodipodi:namedview
     bordercolor="#000000"
     borderopacity="0.34509804"
     inkscape:current-layer="layer2"
     inkscape:cx="3.6222888"
     inkscape:cy="4.1549938"
     inkscape:document-units="px"
     inkscape:grid-bbox="true"
     id="base"
     inkscape:object-nodes="true"
     pagecolor="#37474f"
     inkscape:pageopacity="0"
     inkscape:pageshadow="2"
     showborder="false"
     showgrid="false"
     inkscape:window-height="740"
     inkscape:window-maximized="1"
     inkscape:window-width="1360"
     inkscape:window-x="0"
     inkscape:window-y="0"
     inkscape:zoom="33.811791"
     fit-margin-top="0"
     fit-margin-left="0"
     fit-margin-right="0"
     fit-margin-bottom="0">
    <inkscape:grid
       empspacing="4"
       id="grid5636"
       originx="-0.28935368"
       originy="-119.88235"
       type="xygrid" />
  </sodipodi:namedview>
  <metadata
     id="metadata5087">
    <rdf:RDF>
      <cc:Work
         rdf:about="">
        <dc:format>image/svg+xml</dc:format>
        <dc:type
           rdf:resource="http://purl.org/dc/dcmitype/StillImage" />
        <dc:title>Symbolic Icons</dc:title>
        <dc:creator>
          <cc:Agent>
            <dc:title>Sam Hewitt</dc:title>
          </cc:Agent>
        </dc:creator>
        <cc:license
           rdf:resource="http://creativecommons.org/licenses/by-sa/4.0/" />
      </cc:Work>
      <cc:License
         rdf:about="http://creativecommons.org/licenses/by-sa/4.0/">
        <cc:permits
           rdf:resource="http://creativecommons.org/ns#Reproduction" />
        <cc:permits
           rdf:resource="http://creativecommons.org/ns#Distribution" />
        <cc:requires
           rdf:resource="http://creativecommons.org/ns#Notice" />
        <cc:requires
           rdf:resource="http://creativecommons.org/ns#Attribution" />
        <cc:permits
           rdf:resource="http://creativecommons.org/ns#DerivativeWorks" />
        <cc:requires
           rdf:resource="http://creativecommons.org/ns#ShareAlike" />
      </cc:License>
    </rdf:RDF>
  </metadata>
  <g
     inkscape:groupmode="layer"
     id="layer4"
     inkscape:label="status"
     transform="translate(-0.28935366,-60.349598)"
     style="display:inline" />
  <g
     inkscape:groupmode="layer"
     id="layer3"
     inkscape:label="actions"
     transform="translate(-0.28935366,-60.349598)"
     style="display:inline" />
  <g
     inkscape:groupmode="layer"
     id="layer2"
     inkscape:label="apps 1"
     transform="translate(15.710643,-24.349595)">
    <path
       style="display:inline;fill:#cfd8dc;fill-opacity:1"
       d="m -4.7391594,31.992263 c 0.15,0 0.31,0.01 0.46,0.02 0.9,0.11 1.79,0.45 2.38,1.13 0.41,0.44 0.67,1.04 0.75,1.63 l 0.75000003,0.25 -0.69000003,0.44 c 0.11000003,1.16 -0.44,2.37 -1.19,3.25 -0.72,0.86 -1.67,1.34 -2.75,1.62 -1.5600004,0.4 -3.3600004,0.19 -4.7500003,-0.69 -0.8100003,-0.56 -1.5300003,-1.39 -1.9400003,-2.38 -0.33,-0.98 -0.35,-1.96 -0.19,-2.94 0.16,0.56 0.63,1.03 1.19,1.19 0.56,0.16 1.2700003,0.08 1.6900003,-0.31 0.8899999,-0.83 1.3899999,-2.04 2.3799999,-2.69 0.5700004,-0.41 1.2400004,-0.52 1.9100004,-0.52"
       id="path6"
       inkscape:connector-curvature="0" />
    <g
       transform="matrix(-0.00273728,0.01880704,-0.01880704,-0.00273728,4.2193013,26.764623)"
       id="g8"
       style="fill:#cfd8dc;fill-opacity:1">
      <g
         transform="matrix(0.1,0,0,-0.1,0,240)"
         id="g6"
         style="fill:#cfd8dc;fill-opacity:1">
        <path
           d="M 4239.3,2152.1 C 2503.5,1860.8 1026.6,582.1 456.1,-1121.3 330.6,-1489.5 229.5,-2035.8 229.5,-2319 v -194.2 l 659.5,-12.1 c 360.1,-8.1 663.6,-8.1 671.7,-4 4,4 28.3,149.7 48.6,327.7 210.4,1869.3 1950.2,3249.1 3831.7,3038.7 1448.6,-157.9 2638.2,-1177.5 3006.4,-2565.4 117.3,-453.2 117.3,-1242.2 0,-1699.4 -311.6,-1189.6 -1258.4,-2148.5 -2456.1,-2496.5 -275.1,-80.9 -408.7,-93 -967,-89 -598.8,0 -671.7,8.1 -991.3,113.3 -590.8,198.2 -1052,473.4 -1444.5,869.9 l -169.9,174 756.6,744.5 756.7,744.5 -323.7,-20.2 c -178,-12.1 -987.3,-40.5 -1800.6,-64.7 -813.3,-24.3 -1489,-56.7 -1501.2,-72.8 C 286.1,-3545 185,-5232.3 120.2,-6644.5 l -20.2,-465.3 437,424.9 c 242.8,234.7 546.2,526 671.7,643.4 l 230.6,218.5 267.1,-246.8 C 3211.6,-7478 5376.3,-7809.8 7197.1,-6907.5 8868.2,-6078 9900,-4431.2 9900,-2578 c 0,2350.9 -1683.3,4333.5 -4021.9,4734.1 -437.1,72.8 -1181.6,72.8 -1638.8,-4 z"
           id="path4-3"
           inkscape:connector-curvature="0"
           style="fill:#cfd8dc;fill-opacity:1" />
      </g>
    </g>
  </g>
  <g
     inkscape:groupmode="layer"
     id="layer1"
     inkscape:label="apps"
     transform="translate(-0.28935366,123.65041)"
     style="display:inline" />
</svg>
